<svg width="124" height="25" viewBox="0 0 124 25" fill="none" xmlns="http://www.w3.org/2000/svg">
<path d="M11.9995 21.5C11.6985 21.4996 11.4045 21.4086 11.1558 21.2389C7.47189 18.7381 5.87673 17.0234 4.99689 15.9514C3.12189 13.6663 2.22423 11.3202 2.24954 8.77953C2.27908 5.86813 4.61486 3.5 7.45642 3.5C9.52267 3.5 10.9538 4.66391 11.7872 5.63328C11.8136 5.66368 11.8462 5.68805 11.8829 5.70476C11.9195 5.72146 11.9593 5.73011 11.9995 5.73011C12.0398 5.73011 12.0796 5.72146 12.1162 5.70476C12.1529 5.68805 12.1855 5.66368 12.2119 5.63328C13.0453 4.66297 14.4764 3.5 16.5427 3.5C19.3842 3.5 21.72 5.86812 21.7495 8.78C21.7749 11.3211 20.8763 13.6672 19.0022 15.9519C18.1224 17.0239 16.5272 18.7386 12.8433 21.2394C12.5946 21.4089 12.3006 21.4998 11.9995 21.5Z" fill="#112211"/>
<path d="M30.982 12.708H35.868V14.248H30.982V12.708ZM31.136 18H29.316V8.2H36.47V9.726H31.136V18ZM42.422 18V16.488L42.324 16.166V13.52C42.324 13.0067 42.17 12.61 41.862 12.33C41.554 12.0407 41.0873 11.896 40.462 11.896C40.042 11.896 39.6266 11.9613 39.216 12.092C38.8146 12.2227 38.474 12.4047 38.194 12.638L37.508 11.364C37.9093 11.056 38.3853 10.8273 38.936 10.678C39.496 10.5193 40.0746 10.44 40.672 10.44C41.7546 10.44 42.59 10.7013 43.178 11.224C43.7753 11.7373 44.074 12.5353 44.074 13.618V18H42.422ZM40.07 18.098C39.51 18.098 39.02 18.0047 38.6 17.818C38.18 17.622 37.8533 17.356 37.62 17.02C37.396 16.6747 37.284 16.2873 37.284 15.858C37.284 15.438 37.382 15.06 37.578 14.724C37.7833 14.388 38.1146 14.122 38.572 13.926C39.0293 13.73 39.636 13.632 40.392 13.632H42.562V14.794H40.518C39.9206 14.794 39.5193 14.892 39.314 15.088C39.1086 15.2747 39.006 15.508 39.006 15.788C39.006 16.1053 39.132 16.3573 39.384 16.544C39.636 16.7307 39.986 16.824 40.434 16.824C40.8633 16.824 41.246 16.726 41.582 16.53C41.9273 16.334 42.1746 16.0447 42.324 15.662L42.618 16.712C42.45 17.1507 42.1466 17.4913 41.708 17.734C41.2786 17.9767 40.7326 18.098 40.07 18.098ZM48.1712 18L44.9652 10.524H46.7852L49.5432 17.118H48.6472L51.5032 10.524H53.1832L49.9772 18H48.1712ZM57.4318 18.098C56.6665 18.098 55.9852 17.9347 55.3878 17.608C54.7905 17.272 54.3192 16.8147 53.9738 16.236C53.6285 15.6573 53.4558 14.9993 53.4558 14.262C53.4558 13.5153 53.6285 12.8573 53.9738 12.288C54.3192 11.7093 54.7905 11.2567 55.3878 10.93C55.9852 10.6033 56.6665 10.44 57.4318 10.44C58.2065 10.44 58.8925 10.6033 59.4898 10.93C60.0965 11.2567 60.5678 11.7047 60.9038 12.274C61.2492 12.8433 61.4218 13.506 61.4218 14.262C61.4218 14.9993 61.2492 15.6573 60.9038 16.236C60.5678 16.8147 60.0965 17.272 59.4898 17.608C58.8925 17.9347 58.2065 18.098 57.4318 18.098ZM57.4318 16.6C57.8612 16.6 58.2438 16.5067 58.5798 16.32C58.9158 16.1333 59.1772 15.8627 59.3638 15.508C59.5598 15.1533 59.6578 14.738 59.6578 14.262C59.6578 13.7767 59.5598 13.3613 59.3638 13.016C59.1772 12.6613 58.9158 12.3907 58.5798 12.204C58.2438 12.0173 57.8658 11.924 57.4458 11.924C57.0165 11.924 56.6338 12.0173 56.2978 12.204C55.9712 12.3907 55.7098 12.6613 55.5138 13.016C55.3178 13.3613 55.2198 13.7767 55.2198 14.262C55.2198 14.738 55.3178 15.1533 55.5138 15.508C55.7098 15.8627 55.9712 16.1333 56.2978 16.32C56.6338 16.5067 57.0118 16.6 57.4318 16.6ZM66.2593 18.098C65.6246 18.098 65.0646 17.9813 64.5793 17.748C64.0939 17.5053 63.7159 17.1413 63.4453 16.656C63.1746 16.1613 63.0393 15.5407 63.0393 14.794V10.524H64.7893V14.556C64.7893 15.228 64.9386 15.732 65.2373 16.068C65.5453 16.3947 65.9793 16.558 66.5393 16.558C66.9499 16.558 67.3046 16.474 67.6033 16.306C67.9113 16.138 68.1493 15.886 68.3173 15.55C68.4946 15.214 68.5833 14.7987 68.5833 14.304V10.524H70.3333V18H68.6673V15.984L68.9613 16.6C68.7093 17.0853 68.3406 17.4587 67.8553 17.72C67.3699 17.972 66.8379 18.098 66.2593 18.098ZM72.6246 18V10.524H74.2906V12.582L74.0946 11.98C74.3186 11.476 74.6686 11.0933 75.1446 10.832C75.6299 10.5707 76.2319 10.44 76.9506 10.44V12.106C76.8759 12.0873 76.8059 12.078 76.7406 12.078C76.6752 12.0687 76.6099 12.064 76.5446 12.064C75.8819 12.064 75.3546 12.26 74.9626 12.652C74.5706 13.0347 74.3746 13.6087 74.3746 14.374V18H72.6246ZM78.4351 18V10.524H80.1851V18H78.4351ZM79.3171 9.292C78.9904 9.292 78.7198 9.18933 78.5051 8.984C78.2998 8.77867 78.1971 8.53133 78.1971 8.242C78.1971 7.94333 78.2998 7.696 78.5051 7.5C78.7198 7.29467 78.9904 7.192 79.3171 7.192C79.6438 7.192 79.9098 7.29 80.1151 7.486C80.3298 7.67267 80.4371 7.91067 80.4371 8.2C80.4371 8.508 80.3344 8.76933 80.1291 8.984C79.9238 9.18933 79.6531 9.292 79.3171 9.292ZM85.296 18.098C84.4747 18.098 83.84 17.888 83.392 17.468C82.944 17.0387 82.72 16.4087 82.72 15.578V8.872H84.47V15.536C84.47 15.8907 84.5587 16.166 84.736 16.362C84.9227 16.558 85.1793 16.656 85.506 16.656C85.898 16.656 86.2247 16.5533 86.486 16.348L86.976 17.594C86.7707 17.762 86.5187 17.888 86.22 17.972C85.9213 18.056 85.6133 18.098 85.296 18.098ZM81.488 11.98V10.58H86.472V11.98H81.488ZM91.6835 18.098C90.8528 18.098 90.1248 17.9347 89.4995 17.608C88.8835 17.272 88.4028 16.8147 88.0575 16.236C87.7215 15.6573 87.5535 14.9993 87.5535 14.262C87.5535 13.5153 87.7168 12.8573 88.0435 12.288C88.3795 11.7093 88.8368 11.2567 89.4155 10.93C90.0035 10.6033 90.6708 10.44 91.4175 10.44C92.1455 10.44 92.7942 10.5987 93.3635 10.916C93.9328 11.2333 94.3808 11.6813 94.7075 12.26C95.0342 12.8387 95.1975 13.52 95.1975 14.304C95.1975 14.3787 95.1928 14.4627 95.1835 14.556C95.1835 14.6493 95.1788 14.738 95.1695 14.822H88.9395V13.66H94.2455L93.5595 14.024C93.5688 13.5947 93.4802 13.2167 93.2935 12.89C93.1068 12.5633 92.8502 12.3067 92.5235 12.12C92.2062 11.9333 91.8375 11.84 91.4175 11.84C90.9882 11.84 90.6102 11.9333 90.2835 12.12C89.9662 12.3067 89.7142 12.568 89.5275 12.904C89.3502 13.2307 89.2615 13.618 89.2615 14.066V14.346C89.2615 14.794 89.3642 15.1907 89.5695 15.536C89.7748 15.8813 90.0642 16.1473 90.4375 16.334C90.8108 16.5207 91.2402 16.614 91.7255 16.614C92.1455 16.614 92.5235 16.5487 92.8595 16.418C93.1955 16.2873 93.4942 16.082 93.7555 15.802L94.6935 16.88C94.3575 17.272 93.9328 17.5753 93.4195 17.79C92.9155 17.9953 92.3368 18.098 91.6835 18.098ZM99.1885 18.098C98.5631 18.098 97.9611 18.0187 97.3825 17.86C96.8131 17.692 96.3605 17.4913 96.0245 17.258L96.6965 15.928C97.0325 16.1427 97.4338 16.32 97.9005 16.46C98.3671 16.6 98.8338 16.67 99.3005 16.67C99.8511 16.67 100.248 16.5953 100.49 16.446C100.742 16.2967 100.868 16.096 100.868 15.844C100.868 15.6387 100.784 15.4847 100.616 15.382C100.448 15.27 100.229 15.186 99.9585 15.13C99.6878 15.074 99.3845 15.0227 99.0485 14.976C98.7218 14.9293 98.3905 14.8687 98.0545 14.794C97.7278 14.71 97.4291 14.5933 97.1585 14.444C96.8878 14.2853 96.6685 14.0753 96.5005 13.814C96.3325 13.5527 96.2485 13.2073 96.2485 12.778C96.2485 12.302 96.3838 11.8913 96.6545 11.546C96.9251 11.1913 97.3031 10.9207 97.7885 10.734C98.2831 10.538 98.8665 10.44 99.5385 10.44C100.042 10.44 100.551 10.496 101.064 10.608C101.578 10.72 102.002 10.8787 102.338 11.084L101.666 12.414C101.312 12.1993 100.952 12.0547 100.588 11.98C100.234 11.896 99.8791 11.854 99.5245 11.854C98.9925 11.854 98.5958 11.9333 98.3345 12.092C98.0825 12.2507 97.9565 12.4513 97.9565 12.694C97.9565 12.918 98.0405 13.086 98.2085 13.198C98.3765 13.31 98.5958 13.3987 98.8665 13.464C99.1371 13.5293 99.4358 13.5853 99.7625 13.632C100.098 13.6693 100.43 13.73 100.756 13.814C101.083 13.898 101.382 14.0147 101.652 14.164C101.932 14.304 102.156 14.5047 102.324 14.766C102.492 15.0273 102.576 15.368 102.576 15.788C102.576 16.2547 102.436 16.6607 102.156 17.006C101.886 17.3513 101.498 17.622 100.994 17.818C100.49 18.0047 99.8885 18.098 99.1885 18.098Z" fill="#112211"/>
<path d="M120.316 20.716V7.612H121.926V20.716H120.316Z" fill="#112211"/>
</svg>
