<svg width="103" height="25" viewBox="0 0 103 25" fill="none" xmlns="http://www.w3.org/2000/svg">
<path d="M20.25 11.3141C19.7772 11.1065 19.2664 10.9996 18.75 11H5.25C4.73368 10.9995 4.22288 11.1063 3.75 11.3136C3.08166 11.6059 2.51294 12.0865 2.11336 12.6968C1.71377 13.3071 1.50064 14.0205 1.5 14.75V20C1.5 20.1989 1.57902 20.3897 1.71967 20.5303C1.86032 20.671 2.05109 20.75 2.25 20.75C2.44891 20.75 2.63968 20.671 2.78033 20.5303C2.92098 20.3897 3 20.1989 3 20V19.625C3.00122 19.5259 3.04112 19.4312 3.11118 19.3612C3.18124 19.2911 3.27592 19.2512 3.375 19.25H20.625C20.7241 19.2512 20.8188 19.2911 20.8888 19.3612C20.9589 19.4312 20.9988 19.5259 21 19.625V20C21 20.1989 21.079 20.3897 21.2197 20.5303C21.3603 20.671 21.5511 20.75 21.75 20.75C21.9489 20.75 22.1397 20.671 22.2803 20.5303C22.421 20.3897 22.5 20.1989 22.5 20V14.75C22.4993 14.0206 22.2861 13.3073 21.8865 12.6971C21.4869 12.0869 20.9183 11.6063 20.25 11.3141ZM17.625 4.25H6.375C5.67881 4.25 5.01113 4.52656 4.51884 5.01884C4.02656 5.51113 3.75 6.17881 3.75 6.875V10.25C3.75002 10.2791 3.75679 10.3077 3.76979 10.3337C3.78278 10.3597 3.80163 10.3823 3.82486 10.3998C3.84809 10.4172 3.87505 10.429 3.90363 10.4343C3.93221 10.4395 3.96162 10.4381 3.98953 10.43C4.39896 10.3102 4.82341 10.2496 5.25 10.25H5.44828C5.49456 10.2503 5.53932 10.2335 5.57393 10.2027C5.60855 10.172 5.63058 10.1296 5.63578 10.0836C5.67669 9.71712 5.85115 9.37856 6.12586 9.13256C6.40056 8.88656 6.75625 8.75037 7.125 8.75H9.75C10.119 8.75003 10.475 8.88606 10.75 9.13209C11.025 9.37812 11.1997 9.71688 11.2406 10.0836C11.2458 10.1296 11.2679 10.172 11.3025 10.2027C11.3371 10.2335 11.3818 10.2503 11.4281 10.25H12.5747C12.621 10.2503 12.6657 10.2335 12.7003 10.2027C12.735 10.172 12.757 10.1296 12.7622 10.0836C12.8031 9.71736 12.9773 9.37899 13.2517 9.13303C13.5261 8.88706 13.8815 8.75072 14.25 8.75H16.875C17.244 8.75003 17.6 8.88606 17.875 9.13209C18.15 9.37812 18.3247 9.71688 18.3656 10.0836C18.3708 10.1296 18.3929 10.172 18.4275 10.2027C18.4621 10.2335 18.5068 10.2503 18.5531 10.25H18.75C19.1766 10.2498 19.6011 10.3106 20.0105 10.4305C20.0384 10.4385 20.0679 10.44 20.0965 10.4347C20.1251 10.4295 20.1521 10.4176 20.1753 10.4001C20.1986 10.3826 20.2174 10.3599 20.2304 10.3339C20.2433 10.3078 20.2501 10.2791 20.25 10.25V6.875C20.25 6.17881 19.9734 5.51113 19.4812 5.01884C18.9889 4.52656 18.3212 4.25 17.625 4.25Z" fill="#112211"/>
<path d="M30.982 12.708H35.868V14.248H30.982V12.708ZM31.136 18H29.316V8.2H36.47V9.726H31.136V18ZM38.0621 18V10.524H39.8121V18H38.0621ZM38.9441 9.292C38.6174 9.292 38.3467 9.18933 38.1321 8.984C37.9267 8.77867 37.8241 8.53133 37.8241 8.242C37.8241 7.94333 37.9267 7.696 38.1321 7.5C38.3467 7.29467 38.6174 7.192 38.9441 7.192C39.2707 7.192 39.5367 7.29 39.7421 7.486C39.9567 7.67267 40.0641 7.91067 40.0641 8.2C40.0641 8.508 39.9614 8.76933 39.7561 8.984C39.5507 9.18933 39.2801 9.292 38.9441 9.292ZM46.3509 10.44C46.9483 10.44 47.4803 10.5567 47.9469 10.79C48.4229 11.0233 48.7963 11.3827 49.0669 11.868C49.3376 12.344 49.4729 12.96 49.4729 13.716V18H47.7229V13.94C47.7229 13.2773 47.5643 12.7827 47.2469 12.456C46.9389 12.1293 46.5049 11.966 45.9449 11.966C45.5343 11.966 45.1703 12.05 44.8529 12.218C44.5356 12.386 44.2883 12.638 44.1109 12.974C43.9429 13.3007 43.8589 13.716 43.8589 14.22V18H42.1089V10.524H43.7749V12.54L43.4809 11.924C43.7423 11.448 44.1203 11.084 44.6149 10.832C45.1189 10.5707 45.6976 10.44 46.3509 10.44ZM54.8706 18.098C54.1519 18.098 53.5033 17.9393 52.9246 17.622C52.3553 17.2953 51.9073 16.8473 51.5806 16.278C51.2539 15.7087 51.0906 15.0367 51.0906 14.262C51.0906 13.4873 51.2539 12.8153 51.5806 12.246C51.9073 11.6767 52.3553 11.2333 52.9246 10.916C53.5033 10.5987 54.1519 10.44 54.8706 10.44C55.4959 10.44 56.0559 10.58 56.5506 10.86C57.0453 11.1307 57.4373 11.546 57.7266 12.106C58.0159 12.666 58.1606 13.3847 58.1606 14.262C58.1606 15.13 58.0206 15.8487 57.7406 16.418C57.4606 16.978 57.0733 17.398 56.5786 17.678C56.0839 17.958 55.5146 18.098 54.8706 18.098ZM55.0806 16.6C55.5006 16.6 55.8739 16.5067 56.2006 16.32C56.5366 16.1333 56.8026 15.8627 56.9986 15.508C57.2039 15.1533 57.3066 14.738 57.3066 14.262C57.3066 13.7767 57.2039 13.3613 56.9986 13.016C56.8026 12.6613 56.5366 12.3907 56.2006 12.204C55.8739 12.0173 55.5006 11.924 55.0806 11.924C54.6606 11.924 54.2826 12.0173 53.9466 12.204C53.6199 12.3907 53.3539 12.6613 53.1486 13.016C52.9526 13.3613 52.8546 13.7767 52.8546 14.262C52.8546 14.738 52.9526 15.1533 53.1486 15.508C53.3539 15.8627 53.6199 16.1333 53.9466 16.32C54.2826 16.5067 54.6606 16.6 55.0806 16.6ZM57.3486 18V16.236L57.4186 14.248L57.2786 12.26V7.612H59.0146V18H57.3486ZM68.3931 18.14C67.6277 18.14 66.8951 18.0327 66.1951 17.818C65.4951 17.594 64.9397 17.3093 64.5291 16.964L65.1591 15.55C65.5511 15.858 66.0364 16.1147 66.6151 16.32C67.1937 16.5253 67.7864 16.628 68.3931 16.628C68.9064 16.628 69.3217 16.572 69.6391 16.46C69.9564 16.348 70.1897 16.1987 70.3391 16.012C70.4884 15.816 70.5631 15.5967 70.5631 15.354C70.5631 15.0553 70.4557 14.8173 70.2411 14.64C70.0264 14.4533 69.7464 14.3087 69.4011 14.206C69.0651 14.094 68.6871 13.9913 68.2671 13.898C67.8564 13.8047 67.4411 13.6973 67.0211 13.576C66.6104 13.4453 66.2324 13.282 65.8871 13.086C65.5511 12.8807 65.2757 12.61 65.0611 12.274C64.8464 11.938 64.7391 11.5087 64.7391 10.986C64.7391 10.454 64.8791 9.96867 65.1591 9.53C65.4484 9.082 65.8824 8.72733 66.4611 8.466C67.0491 8.19533 67.7911 8.06 68.6871 8.06C69.2751 8.06 69.8584 8.13467 70.4371 8.284C71.0157 8.43333 71.5197 8.648 71.9491 8.928L71.3751 10.342C70.9364 10.0807 70.4837 9.88933 70.0171 9.768C69.5504 9.63733 69.1024 9.572 68.6731 9.572C68.1691 9.572 67.7584 9.63267 67.4411 9.754C67.1331 9.87533 66.9044 10.034 66.7551 10.23C66.6151 10.426 66.5451 10.65 66.5451 10.902C66.5451 11.2007 66.6477 11.4433 66.8531 11.63C67.0677 11.8073 67.3431 11.9473 67.6791 12.05C68.0244 12.1527 68.4071 12.2553 68.8271 12.358C69.2471 12.4513 69.6624 12.5587 70.0731 12.68C70.4931 12.8013 70.8711 12.96 71.2071 13.156C71.5524 13.352 71.8277 13.618 72.0331 13.954C72.2477 14.29 72.3551 14.7147 72.3551 15.228C72.3551 15.7507 72.2104 16.236 71.9211 16.684C71.6411 17.1227 71.2071 17.4773 70.6191 17.748C70.0311 18.0093 69.2891 18.14 68.3931 18.14ZM76.8058 18.098C75.9844 18.098 75.3498 17.888 74.9017 17.468C74.4538 17.0387 74.2298 16.4087 74.2298 15.578V8.872H75.9798V15.536C75.9798 15.8907 76.0684 16.166 76.2458 16.362C76.4324 16.558 76.6891 16.656 77.0158 16.656C77.4078 16.656 77.7344 16.5533 77.9958 16.348L78.4858 17.594C78.2804 17.762 78.0284 17.888 77.7298 17.972C77.4311 18.056 77.1231 18.098 76.8058 18.098ZM72.9978 11.98V10.58H77.9818V11.98H72.9978ZM84.5313 18V16.488L84.4333 16.166V13.52C84.4333 13.0067 84.2793 12.61 83.9713 12.33C83.6633 12.0407 83.1967 11.896 82.5713 11.896C82.1513 11.896 81.736 11.9613 81.3253 12.092C80.924 12.2227 80.5833 12.4047 80.3033 12.638L79.6173 11.364C80.0187 11.056 80.4947 10.8273 81.0453 10.678C81.6053 10.5193 82.184 10.44 82.7813 10.44C83.864 10.44 84.6993 10.7013 85.2873 11.224C85.8847 11.7373 86.1833 12.5353 86.1833 13.618V18H84.5313ZM82.1793 18.098C81.6193 18.098 81.1293 18.0047 80.7093 17.818C80.2893 17.622 79.9627 17.356 79.7293 17.02C79.5053 16.6747 79.3933 16.2873 79.3933 15.858C79.3933 15.438 79.4913 15.06 79.6873 14.724C79.8927 14.388 80.224 14.122 80.6813 13.926C81.1387 13.73 81.7453 13.632 82.5013 13.632H84.6713V14.794H82.6273C82.03 14.794 81.6287 14.892 81.4233 15.088C81.218 15.2747 81.1153 15.508 81.1153 15.788C81.1153 16.1053 81.2413 16.3573 81.4933 16.544C81.7453 16.7307 82.0953 16.824 82.5433 16.824C82.9727 16.824 83.3553 16.726 83.6913 16.53C84.0367 16.334 84.284 16.0447 84.4333 15.662L84.7273 16.712C84.5593 17.1507 84.256 17.4913 83.8173 17.734C83.388 17.9767 82.842 18.098 82.1793 18.098ZM88.9085 20.814C88.5445 20.814 88.1805 20.7533 87.8165 20.632C87.4525 20.5107 87.1492 20.3427 86.9065 20.128L87.6065 18.84C87.7839 18.9987 87.9845 19.1247 88.2085 19.218C88.4325 19.3113 88.6612 19.358 88.8945 19.358C89.2119 19.358 89.4685 19.2787 89.6645 19.12C89.8605 18.9613 90.0425 18.6953 90.2105 18.322L90.6445 17.342L90.7845 17.132L93.6125 10.524H95.2925L91.7925 18.602C91.5592 19.162 91.2979 19.6053 91.0085 19.932C90.7285 20.2587 90.4112 20.4873 90.0565 20.618C89.7112 20.7487 89.3285 20.814 88.9085 20.814ZM90.4485 18.266L87.0745 10.524H88.8945L91.6385 16.978L90.4485 18.266ZM98.6006 18.098C97.9752 18.098 97.3732 18.0187 96.7946 17.86C96.2252 17.692 95.7726 17.4913 95.4366 17.258L96.1086 15.928C96.4446 16.1427 96.8459 16.32 97.3126 16.46C97.7792 16.6 98.2459 16.67 98.7126 16.67C99.2632 16.67 99.6599 16.5953 99.9026 16.446C100.155 16.2967 100.281 16.096 100.281 15.844C100.281 15.6387 100.197 15.4847 100.029 15.382C99.8606 15.27 99.6412 15.186 99.3706 15.13C99.0999 15.074 98.7966 15.0227 98.4606 14.976C98.1339 14.9293 97.8026 14.8687 97.4666 14.794C97.1399 14.71 96.8412 14.5933 96.5706 14.444C96.2999 14.2853 96.0806 14.0753 95.9126 13.814C95.7446 13.5527 95.6606 13.2073 95.6606 12.778C95.6606 12.302 95.7959 11.8913 96.0666 11.546C96.3372 11.1913 96.7152 10.9207 97.2006 10.734C97.6952 10.538 98.2786 10.44 98.9506 10.44C99.4546 10.44 99.9632 10.496 100.477 10.608C100.99 10.72 101.415 10.8787 101.751 11.084L101.079 12.414C100.724 12.1993 100.365 12.0547 100.001 11.98C99.6459 11.896 99.2912 11.854 98.9366 11.854C98.4046 11.854 98.0079 11.9333 97.7466 12.092C97.4946 12.2507 97.3686 12.4513 97.3686 12.694C97.3686 12.918 97.4526 13.086 97.6206 13.198C97.7886 13.31 98.0079 13.3987 98.2786 13.464C98.5492 13.5293 98.8479 13.5853 99.1746 13.632C99.5106 13.6693 99.8419 13.73 100.169 13.814C100.495 13.898 100.794 14.0147 101.065 14.164C101.345 14.304 101.569 14.5047 101.737 14.766C101.905 15.0273 101.989 15.368 101.989 15.788C101.989 16.2547 101.849 16.6607 101.569 17.006C101.298 17.3513 100.911 17.622 100.407 17.818C99.9026 18.0047 99.3006 18.098 98.6006 18.098Z" fill="#112211"/>
</svg>
